# This file uses centimeters as units for non-parametric coordinates.

mtllib cyl.mtl
g default
v 0.951057 -1.000000 -0.309017
v 0.809018 -1.000000 -0.587786
v 0.587786 -1.000000 -0.809017
v 0.309017 -1.000000 -0.951057
v 0.000000 -1.000000 -1.000000
v -0.309017 -1.000000 -0.951057
v -0.587785 -1.000000 -0.809017
v -0.809017 -1.000000 -0.587785
v -0.951057 -1.000000 -0.309017
v -1.000000 -1.000000 0.000000
v -0.951057 -1.000000 0.309017
v -0.809017 -1.000000 0.587785
v -0.587785 -1.000000 0.809017
v -0.309017 -1.000000 0.951057
v -0.000000 -1.000000 1.000000
v 0.309017 -1.000000 0.951057
v 0.587785 -1.000000 0.809017
v 0.809017 -1.000000 0.587785
v 0.951057 -1.000000 0.309017
v 1.000000 -1.000000 0.000000
v 0.951057 1.000000 -0.309017
v 0.809018 1.000000 -0.587786
v 0.587786 1.000000 -0.809017
v 0.309017 1.000000 -0.951057
v 0.000000 1.000000 -1.000000
v -0.309017 1.000000 -0.951057
v -0.587785 1.000000 -0.809017
v -0.809017 1.000000 -0.587785
v -0.951057 1.000000 -0.309017
v -1.000000 1.000000 0.000000
v -0.951057 1.000000 0.309017
v -0.809017 1.000000 0.587785
v -0.587785 1.000000 0.809017
v -0.309017 1.000000 0.951057
v -0.000000 1.000000 1.000000
v 0.309017 1.000000 0.951057
v 0.587785 1.000000 0.809017
v 0.809017 1.000000 0.587785
v 0.951057 1.000000 0.309017
v 1.000000 1.000000 0.000000
vt 0.005741 0.003307
vt 0.055142 0.000000
vt 0.104544 0.000000
vt 0.153945 0.000000
vt 0.203347 0.000000
vt 0.252748 0.000000
vt 0.302150 0.000000
vt 0.351551 0.000723
vt 0.400953 0.000482
vt 0.450354 0.000000
vt 0.499756 0.000000
vt 0.549157 0.000000
vt 0.598558 0.000000
vt 0.647960 -0.000723
vt 0.697361 -0.000964
vt 0.746763 -0.001205
vt 0.796164 -0.001445
vt 0.845566 -0.001687
vt 0.894967 -0.001927
vt 0.944369 -0.002168
vt 0.993770 -0.001511
vt 0.005985 1.002409
vt 0.055631 1.000000
vt 0.105033 1.000000
vt 0.154434 1.000000
vt 0.203836 1.000121
vt 0.253237 1.000000
vt 0.302639 1.000482
vt 0.352040 1.000241
vt 0.401442 1.000000
vt 0.450843 0.999759
vt 0.500245 0.999518
vt 0.549646 1.000362
vt 0.599048 1.000121
vt 0.648449 0.999880
vt 0.697850 0.999638
vt 0.747252 1.000241
vt 0.796653 1.000000
vt 0.846055 0.999759
vt 0.895456 1.000121
vt 0.944858 0.999879
vt 0.994015 0.997591
vt 0.944369 -0.002168
vt 0.944858 0.999879
vt 0.894967 -0.001927
vt 0.895456 1.000121
vt 0.845566 -0.001687
vt 0.846055 0.999759
vt 0.796164 -0.001445
vt 0.796653 1.000000
vt 0.746763 -0.001205
vt 0.747252 1.000241
vt 0.697361 -0.000964
vt 0.697850 0.999638
vt 0.647960 -0.000723
vt 0.648449 0.999880
vt 0.598558 0.000000
vt 0.599048 1.000121
vt 0.549157 0.000000
vt 0.549646 1.000362
vt 0.499756 0.000000
vt 0.500245 0.999518
vt 0.450354 0.000000
vt 0.450843 0.999759
vt 0.400953 0.000482
vt 0.401442 1.000000
vt 0.351551 0.000723
vt 0.352040 1.000241
vt 0.302150 0.000000
vt 0.302639 1.000482
vt 0.252748 0.000000
vt 0.253237 1.000000
vt 0.203347 0.000000
vt 0.203836 1.000121
vt 0.153945 0.000000
vt 0.154434 1.000000
vt 0.104544 0.000000
vt 0.105033 1.000000
vt 0.055142 0.000000
vt 0.055631 1.000000
vn 0.951057 0.000000 -0.309016
vn 0.809017 0.000000 -0.587785
vn 0.809017 0.000000 -0.587785
vn 0.951057 0.000000 -0.309016
vn 0.587785 0.000000 -0.809017
vn 0.587785 0.000000 -0.809017
vn 0.309017 0.000000 -0.951057
vn 0.309017 0.000000 -0.951057
vn -0.000000 0.000000 -1.000000
vn -0.000000 0.000000 -1.000000
vn -0.309017 0.000000 -0.951056
vn -0.309017 0.000000 -0.951056
vn -0.587785 0.000000 -0.809017
vn -0.587785 0.000000 -0.809017
vn -0.809017 0.000000 -0.587785
vn -0.809017 0.000000 -0.587785
vn -0.951057 0.000000 -0.309017
vn -0.951057 0.000000 -0.309017
vn -1.000000 0.000000 0.000000
vn -1.000000 0.000000 0.000000
vn -0.951057 0.000000 0.309017
vn -0.951057 0.000000 0.309017
vn -0.809017 0.000000 0.587785
vn -0.809017 0.000000 0.587785
vn -0.587785 0.000000 0.809017
vn -0.587785 0.000000 0.809017
vn -0.309017 0.000000 0.951057
vn -0.309017 0.000000 0.951057
vn 0.000000 0.000000 1.000000
vn 0.000000 0.000000 1.000000
vn 0.309017 0.000000 0.951057
vn 0.309017 0.000000 0.951057
vn 0.587785 0.000000 0.809017
vn 0.587785 0.000000 0.809017
vn 0.809017 0.000000 0.587785
vn 0.809017 0.000000 0.587785
vn 0.951057 0.000000 0.309017
vn 0.951057 0.000000 0.309017
vn 1.000000 0.000000 0.000001
vn 1.000000 0.000000 0.000001
s 1
g pCylinder1
usemtl initialShadingGroup
f 1/1/1 2/2/2 22/80/3 21/22/4
f 2/79/2 3/3/5 23/78/6 22/23/3
f 3/77/5 4/4/7 24/76/8 23/24/6
f 4/75/7 5/5/9 25/74/10 24/25/8
f 5/73/9 6/6/11 26/72/12 25/26/10
f 6/71/11 7/7/13 27/70/14 26/27/12
f 7/69/13 8/8/15 28/68/16 27/28/14
f 8/67/15 9/9/17 29/66/18 28/29/16
f 9/65/17 10/10/19 30/64/20 29/30/18
f 10/63/19 11/11/21 31/62/22 30/31/20
f 11/61/21 12/12/23 32/60/24 31/32/22
f 12/59/23 13/13/25 33/58/26 32/33/24
f 13/57/25 14/14/27 34/56/28 33/34/26
f 14/55/27 15/15/29 35/54/30 34/35/28
f 15/53/29 16/16/31 36/52/32 35/36/30
f 16/51/31 17/17/33 37/50/34 36/37/32
f 17/49/33 18/18/35 38/48/36 37/38/34
f 18/47/35 19/19/37 39/46/38 38/39/36
f 19/45/37 20/20/39 40/44/40 39/40/38
f 20/43/39 1/21/1 21/42/4 40/41/40
