# This file uses centimeters as units for non-parametric coordinates.

mtllib cyl.mtl
g default
v 0.951057 -1.000000 -0.309017
v 0.809018 -1.000000 -0.587786
v 0.587786 -1.000000 -0.809017
v 0.309017 -1.000000 -0.951057
v 0.000000 -1.000000 -1.000000
v -0.309017 -1.000000 -0.951057
v -0.587785 -1.000000 -0.809017
v -0.809017 -1.000000 -0.587785
v -0.951057 -1.000000 -0.309017
v -1.000000 -1.000000 0.000000
v -0.951057 -1.000000 0.309017
v -0.809017 -1.000000 0.587785
v -0.587785 -1.000000 0.809017
v -0.309017 -1.000000 0.951057
v 0.000000 -1.000000 1.000000
v 0.309017 -1.000000 0.951057
v 0.587785 -1.000000 0.809017
v 0.809017 -1.000000 0.587785
v 0.951057 -1.000000 0.309017
v 1.000000 -1.000000 0.000000
v 0.951057 1.000000 -0.309017
v 0.809018 1.000000 -0.587786
v 0.587786 1.000000 -0.809017
v 0.309017 1.000000 -0.951057
v 0.000000 1.000000 -1.000000
v -0.309017 1.000000 -0.951057
v -0.587785 1.000000 -0.809017
v -0.809017 1.000000 -0.587785
v -0.951057 1.000000 -0.309017
v -1.000000 1.000000 0.000000
v -0.951057 1.000000 0.309017
v -0.809017 1.000000 0.587785
v -0.587785 1.000000 0.809017
v -0.309017 1.000000 0.951057
v 0.000000 1.000000 1.000000
v 0.309017 1.000000 0.951057
v 0.587785 1.000000 0.809017
v 0.809017 1.000000 0.587785
v 0.951057 1.000000 0.309017
v 1.000000 1.000000 0.000000
vt 0.399749 0.001179
vt 0.449717 0.001081
vt 0.450345 0.320503
vt 0.400377 0.320601
vt 0.499686 0.000982
vt 0.500314 0.320404
vt 0.349780 0.001277
vt 0.350408 0.320699
vt 0.299812 0.001375
vt 0.300440 0.320797
vt 0.249843 0.001474
vt 0.250471 0.320896
vt 0.199874 0.001572
vt 0.200502 0.320994
vt 0.749529 0.000491
vt 0.799498 0.000393
vt 0.800126 0.319815
vt 0.750157 0.319913
vt 0.849466 0.000295
vt 0.850094 0.319717
vt 0.699560 0.000589
vt 0.700188 0.320011
vt 0.899435 0.000196
vt 0.900063 0.319618
vt 0.949403 0.000098
vt 0.950031 0.319520
vt 0.999372 0.000000
vt 1.000000 0.319422
vt 0.549655 0.000884
vt 0.550283 0.320306
vt 0.599623 0.000786
vt 0.600251 0.320208
vt 0.649592 0.000688
vt 0.650220 0.320110
vt 0.000000 0.001965
vt 0.049969 0.001867
vt 0.050597 0.321289
vt 0.000628 0.321387
vt 0.099937 0.001768
vt 0.100565 0.321190
vt 0.149906 0.001670
vt 0.150534 0.321092
vn 0.951057 0.000000 -0.309016
vn 0.809017 0.000000 -0.587785
vn 0.809017 0.000000 -0.587785
vn 0.951057 0.000000 -0.309016
vn 0.809017 0.000000 -0.587785
vn 0.587785 0.000000 -0.809017
vn 0.587785 0.000000 -0.809017
vn 0.809017 0.000000 -0.587785
vn 0.587785 0.000000 -0.809017
vn 0.309017 0.000000 -0.951057
vn 0.309017 0.000000 -0.951057
vn 0.587785 0.000000 -0.809017
vn 0.309017 0.000000 -0.951057
vn -0.000000 0.000000 -1.000000
vn -0.000000 0.000000 -1.000000
vn 0.309017 0.000000 -0.951057
vn -0.000000 0.000000 -1.000000
vn -0.309017 0.000000 -0.951056
vn -0.309017 0.000000 -0.951056
vn -0.000000 0.000000 -1.000000
vn -0.309017 0.000000 -0.951056
vn -0.587785 0.000000 -0.809017
vn -0.587785 0.000000 -0.809017
vn -0.309017 0.000000 -0.951056
vn -0.587785 0.000000 -0.809017
vn -0.809017 0.000000 -0.587785
vn -0.809017 0.000000 -0.587785
vn -0.587785 0.000000 -0.809017
vn -0.809017 0.000000 -0.587785
vn -0.951057 0.000000 -0.309017
vn -0.951057 0.000000 -0.309017
vn -0.809017 0.000000 -0.587785
vn -0.951057 0.000000 -0.309017
vn -1.000000 0.000000 0.000000
vn -1.000000 0.000000 0.000000
vn -0.951057 0.000000 -0.309017
vn -1.000000 0.000000 0.000000
vn -0.951057 0.000000 0.309017
vn -0.951057 0.000000 0.309017
vn -1.000000 0.000000 0.000000
vn -0.951057 0.000000 0.309017
vn -0.809017 0.000000 0.587785
vn -0.809017 0.000000 0.587785
vn -0.951057 0.000000 0.309017
vn -0.809017 0.000000 0.587785
vn -0.587785 0.000000 0.809017
vn -0.587785 0.000000 0.809017
vn -0.809017 0.000000 0.587785
vn -0.587785 0.000000 0.809017
vn -0.309017 0.000000 0.951057
vn -0.309017 0.000000 0.951057
vn -0.587785 0.000000 0.809017
vn -0.309017 0.000000 0.951057
vn 0.000000 0.000000 1.000000
vn 0.000000 0.000000 1.000000
vn -0.309017 0.000000 0.951057
vn 0.000000 0.000000 1.000000
vn 0.309017 0.000000 0.951057
vn 0.309017 0.000000 0.951057
vn 0.000000 0.000000 1.000000
vn 0.309017 0.000000 0.951057
vn 0.587785 0.000000 0.809017
vn 0.587785 0.000000 0.809017
vn 0.309017 0.000000 0.951057
vn 0.587785 0.000000 0.809017
vn 0.809017 0.000000 0.587785
vn 0.809017 0.000000 0.587785
vn 0.587785 0.000000 0.809017
vn 0.809017 0.000000 0.587785
vn 0.951057 0.000000 0.309017
vn 0.951057 0.000000 0.309017
vn 0.809017 0.000000 0.587785
vn 0.951057 0.000000 0.309017
vn 1.000000 0.000000 0.000001
vn 1.000000 0.000000 0.000001
vn 0.951057 0.000000 0.309017
vn 1.000000 0.000000 0.000001
vn 0.951057 0.000000 -0.309016
vn 0.951057 0.000000 -0.309016
vn 1.000000 0.000000 0.000001
s off
g pCylinder1
usemtl initialShadingGroup1
f 1/1/1 2/2/2 22/3/3 21/4/4
f 2/2/5 3/5/6 23/6/7 22/3/8
f 3/5/9 4/29/10 24/30/11 23/6/12
f 4/29/13 5/31/14 25/32/15 24/30/16
f 5/31/17 6/33/18 26/34/19 25/32/20
f 6/33/21 7/21/22 27/22/23 26/34/24
f 7/21/25 8/15/26 28/18/27 27/22/28
f 8/15/29 9/16/30 29/17/31 28/18/32
f 9/16/33 10/19/34 30/20/35 29/17/36
f 10/19/37 11/23/38 31/24/39 30/20/40
f 11/23/41 12/25/42 32/26/43 31/24/44
f 12/25/45 13/27/46 33/28/47 32/26/48
f 13/35/49 14/36/50 34/37/51 33/38/52
f 14/36/53 15/39/54 35/40/55 34/37/56
f 15/39/57 16/41/58 36/42/59 35/40/60
f 16/41/61 17/13/62 37/14/63 36/42/64
f 17/13/65 18/11/66 38/12/67 37/14/68
f 18/11/69 19/9/70 39/10/71 38/12/72
f 19/9/73 20/7/74 40/8/75 39/10/76
f 20/7/77 1/1/78 21/4/79 40/8/80
